<svg t="1614135772759" class="icon" viewBox="0 0 1024 1024" version="1.1" xmlns="http://www.w3.org/2000/svg" p-id="37518" width="200" height="200"><path d="M509.952 67.584c-248.32 0-449.536 201.216-449.536 449.024s201.216 449.536 449.536 449.536 449.024-201.216 449.024-449.536-200.704-449.024-449.024-449.024zM270.336 386.56c0-33.28 26.624-59.904 59.904-59.904 33.28 0 59.904 26.624 59.904 59.904 0 33.28-26.624 59.904-59.904 59.904-33.28 0-59.904-27.136-59.904-59.904z m238.592 348.672c-83.456 0-151.552-64.512-157.696-146.432 106.496-1.536 231.936 0.512 314.88 0-5.632 81.92-74.24 146.432-157.184 146.432z m181.248-288.768c-33.28 0-59.904-26.624-59.904-59.904 0-33.28 26.624-59.904 59.904-59.904 33.28 0 59.904 26.624 59.904 59.904 0 32.768-26.624 59.904-59.904 59.904z" p-id="37519" fill="#B7C7D5"></path></svg>